<svg xmlns="http://www.w3.org/2000/svg" width="24" height="24" viewBox="0 0 24 24" fill="currentColor">
  <path d="M23.418 17.149c-.16-.435-.465-.668-.811-.86a2.009 2.009 0 0 0-.177-.093c-.103-.054-.209-.105-.314-.16-1.08-.573-1.924-1.296-2.51-2.152a4.878 4.878 0 0 1-.43-.764c-.05-.143-.048-.224-.012-.298a.486.486 0 0 1 .138-.144c.186-.123.377-.248.507-.332.232-.15.415-.268.533-.352.444-.31.754-.64.948-1.009a2.01 2.01 0 0 0 .1-1.667c-.295-.774-1.025-1.254-1.91-1.254a2.629 2.629 0 0 0-.7.093 16.394 16.394 0 0 0-.051-1.637c-.167-1.931-.843-2.944-1.549-3.751a6.168 6.168 0 0 0-1.574-1.267C14.536.891 13.323.581 12 .581s-2.53.31-3.602.921a6.148 6.148 0 0 0-1.577 1.27c-.705.807-1.382 1.821-1.548 3.75-.047.55-.06 1.111-.052 1.637a2.63 2.63 0 0 0-.7-.093c-.885 0-1.617.48-1.91 1.254a2.01 2.01 0 0 0 .098 1.67c.194.368.504.698.948 1.008.118.082.302.2.533.353.125.08.308.2.487.318.063.04.116.094.157.157.037.077.038.16-.017.313-.12.26-.261.511-.424.748-.573.837-1.392 1.547-2.438 2.115-.554.294-1.13.49-1.373 1.151-.183.5-.063 1.067.403 1.545.17.179.369.329.587.445.454.25.937.443 1.438.575a.95.95 0 0 1 .29.13c.17.149.146.373.372.7.114.17.258.317.426.433.475.328 1.008.349 1.574.37.51.02 1.09.042 1.75.26.274.09.558.266.888.47.792.487 1.875 1.153 3.689 1.153 1.813 0 2.904-.67 3.702-1.158.327-.201.61-.374.876-.463.661-.218 1.24-.24 1.75-.26.566-.021 1.1-.042 1.574-.37.199-.138.364-.319.485-.528.162-.277.158-.47.311-.606a.9.9 0 0 1 .273-.124 6.396 6.396 0 0 0 1.457-.58 2.29 2.29 0 0 0 .617-.484l.006-.007c.437-.468.547-1.019.368-1.505Zm-1.612.866c-.983.543-1.637.485-2.145.812-.432.278-.176.877-.49 1.093-.386.267-1.525-.018-2.997.468-1.214.401-1.989 1.555-4.172 1.555-2.184 0-2.94-1.152-4.174-1.558-1.47-.486-2.611-.201-2.997-.468-.314-.216-.06-.815-.49-1.093-.51-.327-1.163-.27-2.145-.81-.626-.345-.271-.559-.063-.66 3.561-1.724 4.13-4.386 4.155-4.583.03-.24.065-.428-.199-.67-.254-.236-1.383-.935-1.696-1.153-.518-.362-.746-.724-.578-1.168.117-.307.404-.423.705-.423.095 0 .19.01.282.032.57.123 1.122.408 1.44.485a.54.54 0 0 0 .118.016c.17 0 .23-.086.219-.28-.037-.623-.125-1.836-.027-2.97.135-1.56.637-2.332 1.234-3.015.287-.329 1.635-1.753 4.212-1.753 2.576 0 3.927 1.418 4.214 1.746.598.683 1.1 1.456 1.234 3.015.098 1.134.014 2.347-.026 2.969-.014.205.048.28.218.28.04 0 .08-.005.118-.015.32-.077.872-.362 1.44-.485a1.31 1.31 0 0 1 .283-.032c.303 0 .588.117.706.423.168.444-.06.806-.578 1.168-.313.218-1.442.916-1.697 1.152-.264.243-.229.431-.198.67.025.201.593 2.863 4.154 4.584.21.105.566.32-.06.668Z"/>
</svg>
