<svg xmlns="http://www.w3.org/2000/svg" width="24" height="24" viewBox="0 0 24 24">
  <path d="M18.797 5.414a5.27 5.27 0 0 1-2.4-4.406h-3.784V16.16c-.073 1.695-1.465 3.06-3.178 3.06a3.187 3.187 0 0 1-3.179-3.179 3.186 3.186 0 0 1 3.179-3.179c.33 0 .64.055.934.147V9.152a6.32 6.32 0 0 0-.934-.064c-3.839 0-6.954 3.124-6.954 6.953a6.956 6.956 0 0 0 2.969 5.698 6.875 6.875 0 0 0 3.985 1.264c3.838 0 6.953-3.124 6.953-6.953V8.364a9.004 9.004 0 0 0 5.258 1.695V6.275a5.221 5.221 0 0 1-2.867-.852l.018-.009Z"/>
</svg>
